<?xml version="1.0" standalone="no"?>
<!DOCTYPE svg PUBLIC "-//W3C//DTD SVG 20010904//EN"
 "http://www.w3.org/TR/2001/REC-SVG-20010904/DTD/svg10.dtd">
<svg version="1.0" xmlns="http://www.w3.org/2000/svg"
 width="512.000000pt" height="512.000000pt" viewBox="0 0 512.000000 512.000000"
 preserveAspectRatio="xMidYMid meet">
<metadata>
Created by potrace 1.16, written by Peter Selinger 2001-2019
</metadata>
<g transform="translate(0.000000,512.000000) scale(0.100000,-0.100000)"
fill="#000000" stroke="none">
<path d="M2666 3980 c-47 -15 -76 -49 -76 -89 0 -52 33 -99 85 -122 53 -24 98
-18 151 17 19 14 40 21 46 18 7 -4 4 -10 -6 -16 -15 -8 -15 -11 4 -26 14 -12
24 -38 32 -86 10 -63 10 -70 -7 -82 -10 -8 -27 -14 -36 -14 -11 0 -19 -9 -21
-22 -3 -20 -9 -23 -43 -23 -32 0 -42 -5 -50 -22 -5 -13 -15 -23 -22 -23 -7 0
-13 -4 -13 -8 0 -12 -68 -34 -80 -27 -6 4 -17 1 -25 -5 -8 -7 -26 -9 -39 -6
-14 3 -28 1 -31 -4 -4 -6 -16 -10 -28 -9 -62 5 -96 -1 -102 -21 -3 -10 -1 -28
5 -40 12 -22 22 -22 147 -5 37 5 57 4 68 -5 10 -8 31 -11 63 -7 26 3 67 8 92
11 l45 6 -40 -11 c-22 -5 -69 -16 -105 -24 -90 -20 -271 -112 -370 -187 -45
-35 -103 -76 -129 -92 -173 -110 -185 -116 -227 -116 -38 0 -50 7 -132 80
-132 116 -232 185 -309 212 -64 21 -83 23 -299 23 l-230 0 -42 -27 c-25 -17
-55 -28 -76 -28 -79 0 -87 -32 -26 -109 22 -27 36 -52 32 -55 -4 -2 -25 -7
-47 -11 -105 -19 -274 -126 -311 -196 -14 -27 -19 -29 -74 -29 -47 0 -64 -4
-80 -20 -28 -28 -26 -75 6 -107 24 -24 31 -25 87 -20 34 3 63 10 65 16 2 6 8
9 12 6 5 -3 -8 -21 -29 -40 -43 -39 -147 -192 -138 -202 13 -12 156 -15 187
-4 32 11 32 10 25 -17 -52 -205 -46 -383 19 -557 49 -130 148 -253 260 -327
l59 -38 -34 -1 c-53 -2 106 -27 280 -44 129 -13 321 -20 226 -8 -16 2 -50 6
-75 9 l-45 6 55 14 c150 39 244 114 382 306 12 17 16 16 55 -11 24 -16 64 -32
90 -36 215 -31 613 -110 643 -127 80 -47 521 -96 597 -67 65 24 87 68 59 118
-12 21 -10 29 19 76 17 29 55 113 84 187 79 202 119 291 155 344 l33 48 -20
46 c-23 52 -34 182 -20 245 7 31 9 13 9 -80 -1 -110 1 -124 25 -170 l26 -51
-29 -42 c-44 -64 -120 -223 -114 -239 3 -8 0 -56 -6 -108 -9 -72 -9 -114 0
-185 36 -268 163 -479 373 -620 l90 -60 -43 -1 c-43 -1 -43 -2 12 -10 129 -19
323 -38 430 -43 63 -2 102 -3 85 0 -83 13 -84 14 -8 43 178 70 344 230 429
415 14 30 36 98 49 152 30 115 34 272 10 384 -34 160 -126 323 -244 432 l-67
62 24 21 c16 14 23 28 19 38 -9 23 -99 72 -192 104 -72 25 -93 28 -217 28
l-137 0 -16 35 c-10 19 -29 53 -45 76 -26 39 -27 41 -9 63 39 48 33 195 -13
331 -18 53 -35 77 -86 128 -35 35 -68 60 -74 56 -6 -4 -8 -3 -4 4 3 6 2 13 -4
17 -5 3 -10 10 -10 15 0 11 55 -16 98 -47 30 -22 52 -24 52 -4 0 5 -24 21 -54
35 -56 27 -98 73 -109 116 -4 16 -26 38 -61 60 -30 19 -55 38 -56 41 0 4 23
30 50 58 45 46 50 56 50 96 0 89 -86 139 -131 75 -31 -44 -33 -84 -6 -116 l24
-28 -23 -34 c-13 -19 -24 -41 -24 -48 0 -9 -15 -6 -52 11 -52 24 -135 33 -173
19 -19 -8 -45 -55 -45 -83 0 -12 16 -39 36 -61 43 -48 35 -50 -37 -10 -30 16
-78 34 -106 40 -43 9 -53 15 -53 32 0 19 -4 20 -42 15 -24 -4 -61 -12 -83 -18
-38 -12 -39 -13 -15 -20 15 -4 18 -7 8 -8 -9 -1 -18 -8 -20 -17 -2 -8 -8 0
-14 20 l-11 34 59 7 c40 5 58 11 58 21 0 8 -6 14 -14 14 -17 0 -22 15 -31 90
-4 30 -14 68 -22 84 -11 20 -12 31 -4 39 30 30 -13 117 -75 153 -46 27 -124
38 -168 24z m143 -30 c59 -29 105 -99 87 -129 -12 -19 -116 36 -116 62 0 5 8
6 17 3 26 -10 -26 43 -58 60 -43 22 -110 -2 -128 -46 -7 -19 -10 -21 -10 -7
-1 10 12 32 28 48 26 25 37 29 86 29 36 0 70 -7 94 -20z m-160 -135 l26 -30
-32 29 c-18 17 -33 37 -32 45 0 14 1 14 6 1 3 -8 17 -28 32 -45z m904 8 c3 -5
8 -27 12 -50 6 -36 4 -43 -9 -43 -19 0 -21 -21 -3 -40 6 -8 -4 -2 -23 12 -19
14 -36 35 -38 46 -7 43 44 104 61 75z m-848 -51 c-3 -3 -11 0 -18 7 -9 10 -8
11 6 5 10 -3 15 -9 12 -12z m840 -132 c-9 -16 -20 -30 -25 -30 -14 0 -13 7 6
35 23 35 38 31 19 -5z m-135 -52 c45 -23 89 -83 90 -120 0 -32 -47 -21 -93 21
-69 63 -127 100 -148 96 -17 -4 -19 -2 -9 10 19 23 108 19 160 -7z m134 -27
c3 -4 3 -11 0 -14 -8 -8 -34 3 -34 14 0 11 27 12 34 0z m-266 -82 c26 -23 38
-36 27 -29 -46 32 -85 75 -84 94 2 19 2 19 6 -1 2 -13 25 -41 51 -64z m113
-21 c6 -10 21 -18 37 -18 22 -1 24 -2 10 -10 -23 -14 -35 -6 -103 68 l-60 66
53 -44 c30 -25 58 -53 63 -62z m234 44 c3 -8 4 -17 1 -19 -5 -6 -56 38 -56 49
0 13 48 -13 55 -30z m-832 -42 c4 -22 3 -29 -2 -20 -12 21 -25 90 -13 70 5 -8
12 -31 15 -50z m323 25 c27 -8 65 -28 84 -44 l35 -30 -48 24 c-27 13 -68 27
-93 31 -28 4 -44 11 -44 20 0 17 5 17 66 -1z m512 -29 c17 -9 32 -21 32 -27 0
-11 -10 -6 -52 24 -15 11 -30 27 -33 36 -5 15 -4 15 7 0 7 -9 28 -23 46 -33z
m-517 -17 c54 -18 55 -28 3 -18 -27 5 -53 14 -58 19 -14 14 12 13 55 -1z
m-126 -8 c-10 -9 -157 -31 -164 -25 -10 9 12 16 76 23 99 12 98 12 88 2z m366
-8 c13 -16 12 -17 -3 -4 -17 13 -22 21 -14 21 2 0 10 -8 17 -17z m273 -8 c35
-38 40 -65 11 -65 -12 0 -33 8 -45 18 -18 14 -22 25 -16 45 8 34 20 34 50 2z
m-1174 -31 c0 -8 -6 -11 -15 -8 -8 4 -15 15 -15 26 0 17 3 18 15 8 8 -7 15
-19 15 -26z m1070 15 c0 -6 -4 -7 -10 -4 -5 3 -10 11 -10 16 0 6 5 7 10 4 6
-3 10 -11 10 -16z m-730 2 c0 -11 -29 -18 -105 -27 -77 -9 -64 7 18 22 82 15
87 15 87 5z m340 -1 c25 -8 25 -8 -5 -11 -20 -1 -11 -4 25 -9 41 -4 50 -8 36
-14 -10 -5 -53 -3 -105 5 l-86 14 50 5 50 6 -45 5 -45 6 50 0 c28 1 61 -3 75
-7z m-86 -39 c48 -11 89 -21 91 -23 6 -7 34 -78 30 -78 -2 0 -25 14 -50 31
-47 32 -148 69 -188 69 -18 0 -19 2 -7 10 20 13 23 13 124 -9z m373 -2 c48
-12 124 -22 169 -24 84 -3 128 -18 172 -59 25 -22 67 -95 59 -102 -2 -2 -12
14 -22 35 -30 68 -89 103 -190 115 -50 6 -49 5 14 -12 l63 -17 -33 -15 c-41
-18 -74 -66 -82 -118 -14 -83 48 -223 113 -257 88 -45 159 13 161 132 1 57 1
57 10 18 35 -169 -19 -272 -137 -261 -65 6 -130 39 -219 111 -58 47 -75 68
-100 123 -16 37 -40 83 -52 102 -12 19 -42 77 -67 129 -52 106 -50 121 15 121
21 0 78 -9 126 -21z m-197 -14 c0 -8 -9 -19 -19 -25 -26 -13 -28 -13 -35 6 -6
15 -4 15 11 3 11 -9 14 -10 9 -1 -4 6 -4 17 -1 22 9 15 35 12 35 -5z m-217
-25 c32 -12 70 -33 85 -46 l27 -23 -27 -1 c-49 0 -57 -19 -41 -97 22 -107 22
-107 -144 -122 -213 -19 -256 -34 -413 -147 -81 -58 -101 -68 -145 -72 -53 -4
-253 32 -270 49 -7 7 -2 9 15 5 67 -15 209 -36 243 -36 35 0 48 8 135 93 54
52 112 102 130 111 17 9 32 19 32 22 0 2 -14 -3 -31 -12 -30 -15 -33 -15 -79
10 -26 14 -60 26 -74 26 -21 0 -167 -43 -266 -78 -23 -8 27 44 100 102 132
108 312 199 455 232 80 18 195 12 268 -16z m305 -185 c89 -196 143 -327 137
-333 -3 -3 -7 -3 -9 -1 -7 7 -105 217 -163 349 -30 69 -59 130 -64 135 -6 6 6
-28 26 -75 20 -47 43 -100 50 -118 8 -18 12 -40 9 -50 -4 -13 -3 -14 4 -4 6
10 25 -24 67 -117 51 -117 62 -161 38 -161 -10 0 -139 309 -137 328 1 6 -2 12
-7 12 -5 0 -5 7 -2 17 4 11 3 14 -5 9 -8 -5 -10 -1 -5 10 5 12 3 15 -6 9 -10
-6 -11 -2 -6 15 5 15 4 20 -4 16 -7 -5 -8 -1 -4 10 5 13 3 15 -7 9 -10 -6 -12
-4 -7 8 3 10 3 17 -2 17 -4 0 -8 6 -8 13 0 6 -4 24 -8 39 -5 21 -3 27 12 30
22 5 23 4 101 -167z m478 50 c61 -123 53 -229 -19 -263 -58 -28 -134 35 -163
134 -28 98 3 195 68 212 51 14 75 -3 114 -83z m-2361 55 c40 -10 -62 -10 -160
0 -70 7 -70 7 30 7 55 0 114 -3 130 -7z m-200 -13 c123 -11 129 -13 108 -28
-20 -14 -34 -14 -125 -3 -57 7 -139 13 -183 14 -73 1 -78 2 -61 15 23 18 79
18 261 2z m1950 -7 c-7 -11 -77 -32 -83 -25 -6 6 57 34 76 35 7 0 11 -4 7 -10z
m-1620 -24 c29 -13 28 -13 -21 -8 -92 8 -143 -39 -145 -135 l-1 -48 -10 35
c-5 19 -16 54 -22 77 -12 38 -11 44 5 59 36 32 141 43 194 20z m-356 -31 c94
-22 115 -42 129 -123 22 -124 54 -161 197 -227 129 -61 242 -98 274 -90 14 3
45 19 68 36 54 38 171 90 178 79 3 -5 19 -11 35 -15 16 -4 32 -10 35 -15 3 -4
-28 -32 -68 -62 -39 -30 -103 -78 -141 -107 -60 -46 -70 -50 -85 -38 -9 8 -70
42 -136 77 -66 34 -154 80 -195 102 -115 61 -53 17 114 -80 81 -47 143 -88
137 -90 -6 -2 -18 -17 -27 -34 -12 -23 -13 -36 -4 -62 10 -31 54 -66 83 -66
28 0 58 51 56 92 -3 36 -1 38 88 101 50 36 115 83 145 106 30 22 59 41 65 41
13 0 48 -40 57 -64 10 -30 -16 -59 -136 -149 -116 -87 -190 -159 -220 -215
-16 -30 -18 -31 -70 -25 -29 3 -60 11 -69 17 -27 18 -130 144 -238 288 -144
192 -205 243 -376 309 -107 42 -129 54 -177 97 -42 38 -98 108 -98 124 0 4 21
8 48 9 26 0 55 4 65 7 25 10 178 -3 266 -23z m1951 0 c-43 -16 -60 -18 -60 -6
0 10 29 18 70 19 21 0 20 -2 -10 -13z m40 -24 c0 -5 -12 -12 -27 -15 -16 -4
-37 -10 -48 -13 -36 -10 -5 12 33 23 20 7 38 12 40 13 1 1 2 -3 2 -8z m647
-33 c-3 -8 -6 -5 -6 6 -1 11 2 17 5 13 3 -3 4 -12 1 -19z m-656 -17 c-48 -36
-84 -55 -79 -40 5 14 75 59 93 59 6 0 -1 -9 -14 -19z m27 -40 c-13 -17 -27
-30 -32 -30 -6 -1 3 13 19 29 37 38 43 39 13 1z m-698 -6 c17 -9 30 -19 30
-23 0 -4 -37 -46 -83 -94 -80 -86 -83 -88 -127 -87 -68 1 -243 33 -247 45 -2
6 16 32 39 57 39 43 53 49 158 81 127 39 186 44 230 21z m728 -26 c-3 -8 -7
-3 -11 10 -4 17 -3 21 5 13 5 -5 8 -16 6 -23z m-2238 -59 c63 -33 125 -71 138
-84 l25 -24 -49 -24 c-40 -20 -57 -23 -89 -17 -22 4 -53 8 -69 8 -26 1 -28 -1
-22 -29 6 -31 66 -133 85 -144 7 -5 11 6 11 29 0 57 26 101 81 136 66 42 73
31 10 -15 -55 -40 -71 -75 -71 -153 l0 -43 -39 0 c-65 0 -404 60 -429 76 -31
20 -62 73 -62 105 0 53 101 152 196 190 34 14 144 47 159 48 6 1 62 -26 125
-59z m1105 9 c-69 -70 -153 -125 -168 -110 -9 9 -6 17 13 32 20 17 21 20 5 14
-11 -4 -57 -14 -103 -22 -76 -14 -88 -14 -150 1 -66 16 -173 73 -180 96 -2 6
15 -2 38 -19 94 -68 225 -89 348 -57 30 8 59 13 65 11 7 -3 48 20 92 50 44 30
82 54 85 55 2 0 -18 -23 -45 -51z m1004 1 c48 -24 83 -66 122 -141 51 -101 33
-156 -70 -217 -52 -30 -26 -29 -482 -24 -222 2 -249 4 -269 20 -20 16 -22 24
-16 58 12 62 128 169 247 228 167 82 386 118 468 76z m111 -30 c13 -8 13 -10
-2 -10 -9 0 -20 5 -23 10 -8 13 5 13 25 0z m410 -154 c70 -21 105 -20 158 4
34 15 42 16 42 5 0 -25 -55 -45 -123 -45 -113 0 -185 11 -190 29 -3 9 -22 50
-42 91 l-36 75 69 -72 c56 -59 78 -74 122 -87z m-3142 -23 c3 -22 0 -23 -52
-23 -49 0 -56 3 -56 19 0 22 20 30 70 28 28 -2 36 -6 38 -24z m3020 2 c2 -14
-9 -26 -37 -42 -47 -27 -51 -28 -51 -8 0 8 3 14 8 13 8 -3 72 19 72 25 0 6
-66 0 -81 -7 -8 -4 -1 4 15 19 33 30 70 30 74 0z m-1154 -1 c33 -5 46 -11 46
-23 0 -10 -3 -12 -8 -5 -4 5 -16 10 -27 11 -11 0 -37 3 -59 8 -30 6 -38 5 -34
-6 2 -7 19 -16 37 -20 42 -9 59 -25 43 -41 -9 -9 -12 -9 -12 0 0 8 -17 12 -45
12 -43 0 -45 1 -45 28 0 45 10 48 104 36z m1518 -50 c32 -57 33 -64 14 -64 -8
0 -26 19 -40 43 -14 23 -26 36 -26 28 0 -7 9 -29 21 -47 11 -19 16 -34 11 -34
-6 0 -17 -3 -26 -6 -10 -4 -16 -1 -16 10 0 8 -8 32 -17 51 -17 36 -17 37 7 56
14 10 30 17 35 16 6 -2 22 -26 37 -53z m-2627 -7 c48 -27 53 -46 23 -82 l-24
-27 -37 22 c-32 19 -37 27 -37 60 0 33 8 46 30 49 3 0 23 -10 45 -22z m150 4
c8 -14 -77 -103 -88 -92 -6 6 5 26 29 55 40 47 49 52 59 37z m2200 -98 c28
-58 51 -110 53 -115 2 -4 -15 -7 -37 -6 -23 1 -41 5 -41 10 0 5 -18 51 -40
103 -22 52 -40 99 -40 104 0 6 13 11 28 11 26 0 32 -8 77 -107z m-43 -135 c-6
-6 -17 9 -28 36 -11 25 -23 46 -27 46 -5 0 -5 5 -2 10 3 6 1 10 -5 10 -6 0 -8
5 -5 10 3 6 2 10 -4 10 -6 0 -7 7 -4 17 4 11 3 14 -5 9 -8 -5 -10 -2 -6 8 3 9
2 16 -3 16 -13 0 -13 32 0 48 7 9 22 -17 54 -99 26 -67 40 -116 35 -121z
m-1231 183 c-8 -5 -21 -7 -29 -3 -10 3 -13 1 -8 -6 4 -7 15 -12 24 -12 12 0
13 -3 5 -11 -6 -6 -21 -8 -33 -4 -30 9 -23 47 10 56 30 7 52 -7 31 -20z m1358
6 c-9 -7 -23 -25 -31 -41 l-15 -30 -13 23 c-6 13 -10 24 -8 26 2 1 17 10 33
18 35 19 57 22 34 4z m548 -33 c32 -8 90 -30 128 -49 l70 -33 -137 -1 c-194
-1 -228 -10 -300 -80 -67 -65 -62 -36 -57 -331 5 -289 6 -265 -16 -265 -15 0
-31 26 -71 115 -29 63 -53 118 -53 121 -1 3 10 11 24 17 33 15 32 45 -1 145
-23 68 -30 80 -60 95 -29 14 -37 25 -54 81 -11 35 -25 70 -31 77 -5 7 -6 14
-2 17 29 18 217 87 263 96 30 6 64 13 75 15 33 8 159 -4 222 -20z m-3618 -10
c2 -2 -9 -20 -25 -41 -16 -21 -39 -59 -51 -85 l-22 -48 -56 0 c-30 0 -55 3
-55 6 0 3 15 26 33 51 l32 45 5 -28 c7 -38 34 -42 56 -9 13 20 15 31 6 50 -15
33 19 79 52 69 11 -4 23 -8 25 -10z m659 -89 c-24 -22 -49 -38 -57 -36 -9 1
-12 -3 -8 -13 4 -9 3 -16 -2 -16 -23 0 -15 18 32 77 47 59 53 63 65 46 11 -16
8 -22 -30 -58z m1095 68 c3 -5 -1 -14 -9 -21 -12 -11 -14 -9 -14 8 0 20 14 27
23 13z m-1129 -24 c-6 -11 -24 -2 -24 11 0 5 7 7 15 4 8 -4 12 -10 9 -15z
m2461 2 c-40 -18 -55 -18 -55 0 0 6 4 7 10 4 5 -3 18 -1 27 4 10 6 27 10 38
10 13 0 5 -6 -20 -18z m-2502 -45 c-14 -25 -45 2 -36 32 6 24 6 24 26 4 14
-14 17 -24 10 -36z m599 37 c10 -9 18 -22 18 -30 0 -19 -47 -16 -59 5 -10 16
-10 16 -11 0 0 -9 9 -23 20 -31 l21 -14 -21 -6 c-25 -7 -38 33 -21 69 12 28
27 30 53 7z m1557 1 c10 -9 -76 -3 -89 7 -11 7 -1 8 35 3 28 -4 52 -8 54 -10z
m-941 -21 c-16 -2 -40 -2 -55 0 -16 2 -3 4 27 4 30 0 43 -2 28 -4z m55 -103
c-28 -107 -47 -157 -37 -100 8 45 55 203 59 198 2 -2 -8 -46 -22 -98z m875 93
c-10 -2 -28 -2 -40 0 -13 2 -5 4 17 4 22 1 32 -1 23 -4z m-2383 -18 c-186
-138 -238 -386 -127 -613 36 -75 117 -154 184 -181 l53 -22 -48 4 c-90 8 -181
98 -234 233 -25 63 -27 81 -27 199 0 111 3 138 22 186 33 84 80 148 131 180
46 30 82 40 46 14z m1198 1 c7 -18 -40 -62 -76 -70 -22 -5 -28 -12 -25 -29 2
-14 11 -23 26 -25 20 -3 23 0 17 17 -3 12 -2 21 4 21 5 0 11 -10 13 -22 2 -15
10 -23 24 -24 53 -3 92 -16 120 -42 17 -15 23 -22 15 -16 -74 53 -163 59 -232
16 -24 -16 -55 -45 -69 -65 -39 -57 -61 -35 -41 41 14 50 37 79 122 152 71 61
93 71 102 46z m672 -15 c3 -5 1 -12 -5 -16 -6 -4 -7 -11 -4 -17 4 -6 9 -5 15
3 12 21 33 -4 24 -30 -9 -30 -22 -26 -68 20 -39 39 -40 42 -23 55 19 13 47 6
61 -15z m-1675 4 l25 -14 -25 -1 c-15 0 -30 4 -35 9 -6 5 -21 11 -35 14 -19 3
-17 5 10 5 19 1 46 -5 60 -13z m193 -32 c30 -59 71 -182 64 -190 -3 -3 -18 -1
-32 4 -20 6 -31 22 -49 73 -12 36 -30 79 -39 96 -15 28 -15 32 1 47 24 25 29
22 55 -30z m1075 40 c-15 -2 -42 -2 -60 0 -18 2 -6 4 27 4 33 0 48 -2 33 -4z
m288 -19 c55 -37 114 -96 107 -107 -3 -5 -33 18 -67 51 -33 33 -70 64 -81 70
-11 6 -15 12 -9 12 6 0 29 -12 50 -26z m649 11 c6 -2 -10 -4 -35 -4 -25 0 -51
3 -59 8 -13 8 69 5 94 -4z m-2682 -83 c-136 -275 -36 -651 202 -768 148 -72
302 -5 409 179 33 57 42 66 60 61 12 -4 23 -8 26 -11 12 -11 -79 -162 -129
-213 -115 -116 -248 -147 -379 -86 -121 56 -232 205 -278 376 -25 91 -25 291
0 380 10 36 21 67 24 70 4 3 18 26 31 52 21 42 25 46 45 37 l22 -10 -33 -67z
m1991 54 c44 -26 137 -116 120 -116 -5 0 -28 18 -49 41 -52 53 -96 80 -159 96
l-51 13 49 -5 c27 -3 68 -16 90 -29z m-862 -8 c-6 -6 -18 -7 -29 -3 -16 8 -16
9 5 12 12 3 22 10 23 16 0 8 3 7 6 -1 3 -8 1 -18 -5 -24z m561 25 c-7 -2 -21
-2 -30 0 -10 3 -4 5 12 5 17 0 24 -2 18 -5z m-1652 -71 c-107 -212 -78 -484
69 -645 98 -107 219 -138 327 -84 53 27 116 83 109 96 -3 4 1 8 9 8 32 0 -62
-99 -128 -134 -53 -29 -160 -24 -225 10 -108 56 -194 178 -228 323 -33 140 -7
347 57 450 34 56 42 38 10 -24z m1707 51 c-10 -2 -28 -2 -40 0 -13 2 -5 4 17
4 22 1 32 -1 23 -4z m208 -23 c33 -16 71 -42 85 -56 23 -25 23 -26 2 -15 -12
6 -25 16 -28 21 -3 6 -11 10 -16 10 -6 0 -7 -5 -3 -12 4 -7 3 -8 -4 -4 -6 4
-18 -6 -27 -23 -8 -16 -19 -33 -25 -36 -12 -8 30 67 44 76 10 7 -34 32 -93 54
-25 10 -30 14 -15 14 11 1 48 -12 80 -29z m452 18 c28 -28 1 -75 -37 -63 -26
8 -39 54 -20 66 20 12 43 11 57 -3z m259 5 c-20 -2 -52 -2 -70 0 -17 2 0 4 38
4 39 0 53 -2 32 -4z m859 -28 c93 -47 158 -105 215 -193 93 -141 132 -283 131
-467 -1 -130 -24 -234 -77 -340 -120 -244 -373 -395 -595 -356 -180 32 -355
171 -444 351 -65 133 -86 225 -86 374 0 155 18 238 76 355 l47 95 18 -47 19
-47 -29 -58 c-45 -89 -62 -158 -68 -277 -7 -130 14 -231 71 -348 107 -221 328
-353 533 -319 189 31 363 199 439 422 15 44 19 85 19 205 0 130 -3 159 -23
218 -32 98 -77 171 -148 247 -72 76 -149 125 -222 142 -29 7 -51 17 -49 23 5
15 68 55 87 55 10 0 48 -16 86 -35z m-2895 -66 c21 -54 24 -89 9 -89 -5 0 -10
8 -10 18 0 9 -14 46 -30 80 -17 35 -27 68 -24 74 8 13 33 -24 55 -83z m1046
85 c-3 -3 -12 -4 -19 -1 -8 3 -5 6 6 6 11 1 17 -2 13 -5z m1342 -115 c-8 -16
-3 -37 26 -105 44 -102 49 -138 19 -142 -21 -3 -25 3 -54 83 l-11 30 -16 -33
c-8 -17 -22 -32 -29 -32 -8 0 -14 -3 -14 -7 -1 -5 -12 -21 -25 -38 -24 -29
-25 -29 -25 -7 0 14 20 44 50 76 l50 53 -48 92 c-27 50 -52 88 -56 84 -4 -4
-4 0 -1 9 7 18 32 31 45 23 4 -3 11 -16 14 -30 11 -42 68 -196 72 -193 2 2
-15 55 -36 118 -22 63 -40 115 -40 117 0 2 10 8 23 12 20 8 24 4 45 -41 17
-38 20 -54 11 -69z m733 73 c59 -42 136 -134 177 -211 35 -67 71 -171 70 -203
0 -13 -7 3 -15 35 -17 70 -91 218 -134 267 -30 34 -30 33 3 -15 47 -68 91
-159 111 -226 19 -69 36 -219 34 -314 l-1 -70 -8 94 c-5 52 -16 117 -25 145
-27 86 -129 288 -172 343 -23 28 -38 53 -35 57 3 3 -5 10 -19 15 -13 5 -55 32
-92 60 l-67 51 35 0 c27 0 42 -8 70 -37 20 -21 36 -33 36 -27 0 5 -13 23 -30
39 -61 58 -20 57 62 -3z m-2012 28 c-8 -5 -31 -9 -50 -9 l-35 1 30 8 c17 4 39
8 50 9 16 1 17 -1 5 -9z m735 -90 c-25 -49 -54 -104 -66 -122 l-20 -33 6 35
c10 49 63 181 82 202 8 9 21 14 29 11 10 -4 3 -26 -31 -93z m389 10 c-5 -13
-6 -13 -13 0 -5 8 -12 33 -15 55 l-7 40 21 -40 c11 -22 18 -47 14 -55z m-2399
70 c-3 -6 -18 -7 -33 -4 -27 7 -27 7 -8 -15 24 -27 13 -40 -14 -16 -32 29 -25
45 21 45 24 0 38 -4 34 -10z m38 -5 c-3 -9 -8 -14 -10 -11 -3 3 -2 9 2 15 9
16 15 13 8 -4z m1337 -10 c-7 -9 -15 -13 -19 -10 -3 3 1 10 9 15 21 14 24 12
10 -5z m828 8 c-21 -2 -55 -2 -75 0 -21 2 -4 4 37 4 41 0 58 -2 38 -4z m-2316
-20 c27 -25 22 -33 -22 -33 -44 0 -48 5 -23 32 20 22 22 22 45 1z m1366 10
c-10 -2 -28 -2 -40 0 -13 2 -5 4 17 4 22 1 32 -1 23 -4z m-1168 -28 c10 -12
10 -19 2 -27 -9 -9 -12 -8 -12 5 0 9 -4 17 -10 17 -5 0 -10 5 -10 10 0 15 16
12 30 -5z m1153 8 c-7 -2 -21 -2 -30 0 -10 3 -4 5 12 5 17 0 24 -2 18 -5z
m121 -15 c-5 -8 -1 -9 12 -4 14 5 16 4 7 -5 -13 -13 -37 -3 -28 12 4 5 8 9 11
9 3 0 2 -5 -2 -12z m844 5 c-21 -2 -57 -2 -80 0 -24 2 -7 4 37 4 44 0 63 -2
43 -4z m740 -11 c166 -52 306 -213 358 -412 21 -80 23 -253 5 -330 -78 -321
-361 -521 -623 -440 -181 56 -333 231 -382 440 -34 145 -12 346 51 462 36 66
42 40 8 -36 -107 -242 -56 -536 125 -716 198 -197 449 -196 645 4 77 78 135
176 160 272 23 88 20 250 -6 338 -61 205 -178 333 -361 397 -42 14 -74 29 -71
33 10 10 27 7 91 -12z m-2998 -13 c0 -6 -4 -7 -10 -4 -5 3 -10 11 -10 16 0 6
5 7 10 4 6 -3 10 -11 10 -16z m1295 11 c-28 -12 -57 -12 -50 0 3 6 21 10 38 9
27 0 29 -2 12 -9z m639 -11 c37 -29 32 -40 -11 -22 l-38 15 26 -29 c38 -41 49
-66 49 -115 0 -70 -47 -152 -193 -334 -201 -250 -235 -265 -492 -219 -82 14
-165 29 -183 32 -26 4 -38 14 -50 39 -8 19 -13 36 -10 40 4 3 66 -7 140 -21
239 -49 317 -37 407 61 59 64 203 246 244 307 31 46 34 87 12 140 -20 49 -19
69 6 101 25 31 57 33 93 5z m-316 -3 c-2 0 -18 -14 -37 -31 l-34 -30 28 37
c16 20 33 34 38 31 4 -3 7 -6 5 -7z m-1508 -6 c12 -8 9 -10 -13 -10 -16 0 -26
4 -22 10 8 12 16 12 35 0z m-69 -31 c57 -17 203 -75 324 -129 121 -53 237
-102 258 -109 22 -8 48 -27 65 -49 53 -71 98 -106 200 -155 77 -37 102 -53
102 -68 0 -10 -5 -19 -11 -19 -7 0 -252 120 -545 267 -498 249 -535 266 -551
250 -15 -15 -17 -15 -29 1 -11 15 -16 12 -53 -25 -23 -22 -41 -39 -41 -36 0
15 33 63 52 75 54 36 101 35 229 -3z m1268 27 c-11 -9 -69 -15 -64 -6 3 6 20
10 37 10 17 0 29 -2 27 -4z m169 -26 c84 -43 96 -55 83 -78 -5 -10 -18 -25
-28 -33 -17 -13 -17 -13 0 7 9 11 17 29 17 39 0 17 -1 17 -22 -1 -23 -19 -23
-19 -5 2 19 23 14 36 -11 27 -10 -4 -13 -2 -9 3 4 4 -16 21 -45 36 -29 15 -49
27 -45 28 4 0 33 -13 65 -30z m181 23 c0 -5 -18 -23 -40 -42 -44 -38 -53 -22
-12 21 25 26 54 38 52 21z m584 0 c-24 -2 -62 -2 -85 0 -24 2 -5 4 42 4 47 0
66 -2 43 -4z m232 -23 c-4 -12 -9 -19 -12 -17 -3 3 -2 15 2 27 4 12 9 19 12
17 3 -3 2 -15 -2 -27z m213 6 c5 -6 22 -51 38 -99 24 -76 26 -89 14 -97 -25
-16 -38 -11 -45 18 -3 15 -22 60 -42 100 -28 56 -33 75 -24 86 13 15 45 11 59
-8z m-1549 -7 c87 -53 141 -130 140 -199 -1 -31 -3 -28 -21 28 -45 148 -198
218 -302 139 -49 -38 -71 -90 -71 -167 2 -189 189 -289 291 -155 36 48 45 143
20 210 -27 70 -116 139 -158 122 -7 -3 0 -6 15 -6 39 -1 119 -83 135 -137 25
-86 5 -177 -50 -215 -37 -27 -120 -23 -161 7 -70 50 -101 191 -60 271 20 39
79 87 94 77 5 -3 9 0 9 5 0 16 57 13 95 -5 127 -60 155 -285 47 -376 -68 -57
-154 -45 -226 32 -99 106 -88 274 22 357 36 27 52 33 95 33 35 0 63 -7 86 -21z
m264 -9 c-9 -32 -20 -32 -15 0 2 17 8 28 12 25 5 -3 6 -14 3 -25z m1040 -50
c21 -85 6 -102 -26 -29 -20 43 -22 59 -14 82 12 37 21 26 40 -53z m-1853 60
c0 -5 -4 -10 -10 -10 -5 0 -10 5 -10 10 0 6 5 10 10 10 6 0 10 -4 10 -10z
m723 3 c-7 -2 -21 -2 -30 0 -10 3 -4 5 12 5 17 0 24 -2 18 -5z m930 -10 c-23
-2 -64 -2 -90 0 -26 2 -7 3 42 3 50 0 71 -1 48 -3z m-960 -10 c-13 -2 -33 -2
-45 0 -13 2 -3 4 22 4 25 0 35 -2 23 -4z m-1385 -37 c26 -13 126 -58 222 -101
178 -78 808 -386 868 -424 98 -62 -55 -33 -260 49 -224 91 -402 157 -683 255
-137 48 -256 90 -262 92 -14 6 -18 -34 -5 -53 4 -7 27 -18 52 -25 45 -12 83
-33 41 -22 -30 8 -27 -18 7 -49 15 -14 44 -29 66 -32 32 -6 43 -3 65 16 19 17
22 18 10 3 -9 -11 -22 -31 -29 -45 -11 -20 -5 -17 24 13 21 20 43 37 48 37 12
0 -37 -66 -72 -97 -36 -32 -103 -31 -146 2 -39 30 -81 113 -90 177 -9 68 12
143 54 189 19 22 36 39 38 39 3 0 26 -11 52 -24z m687 10 c38 -16 43 -31 21
-61 -14 -19 -15 -19 -62 3 -27 12 -74 31 -104 41 -72 25 -50 27 29 2 l61 -19
6 24 c7 28 5 28 49 10z m1919 -16 c19 0 19 -1 1 -20 -20 -22 -29 -18 -40 20
-6 20 -5 23 6 13 7 -7 22 -13 33 -13z m393 -67 c-2 -16 -4 -3 -4 27 0 30 2 43
4 28 2 -16 2 -40 0 -55z m-709 50 c-21 -2 -55 -2 -75 0 -21 2 -4 4 37 4 41 0
58 -2 38 -4z m-763 -13 c3 -5 1 -10 -4 -10 -6 0 -11 5 -11 10 0 6 2 10 4 10 3
0 8 -4 11 -10z m1643 -9 c12 -11 22 -24 22 -30 0 -6 5 -10 11 -8 6 1 14 -4 17
-12 3 -8 0 -11 -7 -7 -14 9 -14 7 4 -45 23 -63 6 -70 -51 -20 -26 22 -51 41
-55 41 -12 0 -11 31 2 69 13 36 25 38 57 12z m-575 -48 c-27 -40 -39 -51 -41
-39 -3 15 61 96 75 96 2 0 -14 -25 -34 -57z m-977 -10 c-2 -3 -23 1 -46 7 -41
11 -41 12 -24 31 17 19 18 19 46 -8 15 -14 26 -28 24 -30z m121 33 c-6 -8 -15
-12 -19 -9 -4 2 -2 10 5 17 6 8 15 12 19 9 4 -2 2 -10 -5 -17z m541 17 c-21
-2 -55 -2 -75 0 -21 2 -4 4 37 4 41 0 58 -2 38 -4z m-1413 -24 l50 -10 2 -99
2 -100 -27 15 c-54 29 -110 92 -122 136 -6 24 -13 52 -16 61 -6 19 -6 19 111
-3z m-235 -24 c97 -33 130 -49 119 -59 -2 -2 -53 16 -114 40 -135 53 -133 52
-119 53 5 1 57 -15 114 -34z m1220 25 c5 0 14 -9 20 -21 9 -16 8 -25 -6 -40
-9 -10 -24 -19 -32 -19 -19 0 -52 29 -52 46 0 20 31 46 47 40 8 -3 19 -6 23
-6z m423 3 c-13 -2 -35 -2 -50 0 -16 2 -5 4 22 4 28 0 40 -2 28 -4z m-207 -58
c-10 -24 -21 -47 -25 -50 -5 -2 1 20 13 49 12 30 23 52 25 50 2 -2 -4 -24 -13
-49z m214 25 c0 -6 -28 -10 -65 -10 -37 0 -65 4 -65 10 0 6 28 10 65 10 37 0
65 -4 65 -10z m-655 -30 c29 -18 75 -75 75 -93 0 -4 -13 -13 -29 -22 -27 -13
-38 -13 -128 7 -98 21 -139 38 -92 38 13 0 51 -7 84 -15 76 -18 80 -18 65 0
-6 8 -48 22 -91 31 -51 11 -79 22 -79 31 0 15 10 16 42 4 43 -16 104 -24 92
-12 -6 6 -30 15 -55 19 -31 5 -45 13 -47 26 -4 18 1 19 63 13 41 -4 80 -14
100 -27z m1449 4 c71 -24 149 -101 193 -192 38 -75 38 -77 38 -197 0 -115 -1
-123 -32 -188 -30 -64 -73 -129 -73 -112 0 4 -14 -7 -32 -24 -17 -17 -45 -37
-61 -44 -26 -11 -28 -15 -23 -49 4 -24 2 -38 -6 -40 -19 -7 -109 12 -138 27
-24 14 -23 14 30 16 30 0 66 4 80 8 14 5 -17 6 -67 3 -88 -5 -95 -3 -134 22
-36 25 -49 55 -20 48 7 -1 10 2 6 8 -7 11 -45 -5 -45 -19 0 -31 151 -115 227
-127 24 -3 45 -10 48 -13 10 -17 -111 10 -171 38 -82 38 -190 141 -227 214
-48 96 -73 227 -42 227 8 0 15 -7 15 -15 0 -13 4 -14 21 -5 34 19 55 19 56 2
1 -10 4 -27 8 -39 5 -16 3 -21 -11 -20 -11 1 -20 -6 -22 -18 -3 -15 -1 -17 9
-9 15 11 25 11 52 0 23 -11 91 40 83 61 -4 8 -9 26 -12 40 -6 23 -10 25 -43
20 -31 -5 -33 -4 -16 6 38 22 64 16 76 -20 19 -59 83 -72 131 -26 33 32 37 17
6 -22 -20 -25 -25 -27 -75 -22 -48 5 -53 4 -53 -14 0 -11 -4 -18 -8 -15 -5 3
-27 -6 -50 -19 -24 -13 -51 -21 -64 -19 -16 4 -13 0 9 -10 21 -9 33 -24 37
-43 5 -21 13 -29 29 -29 12 0 27 5 32 12 8 9 17 9 39 -1 l30 -13 -41 -21 c-23
-11 -48 -18 -56 -15 -8 3 -29 25 -46 50 -18 24 -37 42 -42 39 -5 -4 -4 -14 3
-25 9 -14 9 -25 1 -43 -10 -21 -9 -28 6 -41 16 -15 19 -15 34 2 17 18 19 18
69 -7 31 -15 74 -27 111 -29 l60 -5 -7 54 c-3 30 -9 70 -11 89 -5 31 -4 32 6
13 11 -21 12 -21 46 13 19 20 38 32 41 29 4 -4 -10 -21 -31 -38 -34 -29 -37
-36 -37 -84 0 -28 4 -55 10 -58 18 -11 94 31 133 73 34 39 50 71 27 57 -9 -5
-63 29 -128 82 -23 19 -25 24 -15 42 19 31 14 134 -8 167 -30 46 -22 51 14 9
l33 -38 59 19 c33 10 65 18 71 17 6 0 9 8 7 18 -3 10 -9 17 -13 14 -4 -2 -15
14 -25 36 -25 55 -98 118 -147 125 -28 5 -38 11 -38 25 0 11 3 18 8 17 4 -2 8
2 9 7 0 6 -3 9 -8 8 -5 -2 -9 4 -9 12 0 19 25 19 84 -1z m-816 -1 c-10 -2 -28
-2 -40 0 -13 2 -5 4 17 4 22 1 32 -1 23 -4z m1072 -63 c0 -6 -5 -10 -10 -10
-11 0 -50 59 -50 75 1 13 60 -52 60 -65z m-1103 33 c-20 -2 -52 -2 -70 0 -17
2 0 4 38 4 39 0 53 -2 32 -4z m418 -35 c-10 -31 -25 -47 -25 -26 0 24 11 48
22 48 5 0 6 -10 3 -22z m635 1 c0 -6 -4 -7 -10 -4 -5 3 -10 11 -10 16 0 6 5 7
10 4 6 -3 10 -11 10 -16z m-1067 4 c-18 -2 -48 -2 -65 0 -18 2 -4 4 32 4 36 0
50 -2 33 -4z m362 -41 c-9 -9 -25 11 -25 31 1 21 1 21 15 -3 7 -14 12 -27 10
-28z m-1189 -8 c-7 -57 -41 -120 -79 -148 -20 -15 -45 -21 -95 -22 l-67 -2 55
7 c61 7 95 23 122 55 21 25 48 100 48 133 0 13 5 23 11 23 8 0 10 -15 5 -46z
m1458 -72 c25 -56 46 -107 46 -112 0 -6 -9 -10 -20 -10 -11 0 -24 -8 -27 -17
-7 -19 -22 -33 -37 -33 -5 0 0 11 13 23 14 16 21 34 19 55 -1 18 -5 32 -8 32
-4 0 -7 6 -7 13 0 6 -12 40 -28 74 -15 36 -25 70 -21 79 10 25 19 12 70 -104z
m-144 93 c11 -13 10 -14 -4 -9 -9 3 -16 10 -16 15 0 13 6 11 20 -6z m-1808
-71 c50 -37 60 -61 12 -29 -34 22 -73 63 -85 90 -8 16 -6 15 7 -3 9 -12 39
-38 66 -58z m1316 69 c-15 -2 -42 -2 -60 0 -18 2 -6 4 27 4 33 0 48 -2 33 -4z
m1048 -21 c-4 -3 -14 2 -24 12 -16 18 -16 18 6 6 13 -6 21 -14 18 -18z m-183
4 c3 -8 0 -19 -7 -25 -10 -9 -12 -6 -8 14 5 29 8 31 15 11z m-865 -3 c-10 -2
-26 -2 -35 0 -10 3 -2 5 17 5 19 0 27 -2 18 -5z m769 -15 c-3 -8 -6 -5 -6 6
-1 11 2 17 5 13 3 -3 4 -12 1 -19z m53 12 c0 -5 -4 -10 -10 -10 -5 0 -10 5
-10 10 0 6 5 10 10 10 6 0 10 -4 10 -10z m-1478 -22 c63 -9 79 -15 84 -31 10
-30 -8 -36 -51 -17 -22 11 -32 19 -22 19 10 1 29 -6 42 -15 15 -10 25 -12 25
-6 0 16 -34 32 -78 37 -72 9 -101 16 -108 27 -5 8 -1 9 12 4 10 -4 53 -12 96
-18z m1150 4 c4 -4 -24 -7 -62 -7 -67 0 -81 8 -30 18 30 6 81 0 92 -11z m-992
-20 c-1 -9 -13 -41 -29 -71 l-27 -53 4 63 c2 42 9 68 19 76 19 15 33 8 33 -15z
m1580 20 c0 -13 -12 -22 -22 -16 -10 6 -1 24 13 24 5 0 9 -4 9 -8z m110 -8 c0
-4 -8 -13 -17 -20 -17 -13 -17 -13 1 -14 19 0 18 -1 -2 -23 l-22 -23 25 -24
c28 -26 33 -50 11 -50 -8 0 -18 -5 -22 -11 -5 -9 1 -10 20 -5 21 5 26 3 26
-13 0 -11 -10 -27 -22 -35 -18 -13 -19 -16 -6 -16 10 0 22 -9 28 -21 19 -35 5
-31 -33 10 -20 21 -34 41 -31 43 2 3 -3 21 -11 41 -8 21 -12 37 -8 37 5 0 4 4
-2 8 -5 4 -15 17 -22 29 -10 17 -9 22 2 27 8 3 15 11 15 17 0 8 -5 8 -16 -2
-13 -10 -17 -10 -24 1 -13 21 29 49 73 50 20 0 37 -3 37 -6z m-1217 -11 c-13
-2 -33 -2 -45 0 -13 2 -3 4 22 4 25 0 35 -2 23 -4z m467 -26 c-1 -25 -28 -138
-35 -145 -9 -9 5 98 16 119 8 16 3 29 -11 29 -4 0 -10 -32 -13 -71 -6 -67 -11
-88 -21 -78 -3 3 17 161 23 177 3 8 41 -21 41 -31z m343 18 c4 -8 2 -17 -3
-20 -6 -4 -10 3 -10 14 0 25 6 27 13 6z m47 3 c0 -7 -4 -19 -9 -26 -6 -11 -9
-9 -14 7 -2 11 -2 22 1 25 10 10 22 6 22 -6z m657 -60 c-2 -13 -4 -5 -4 17 -1
22 1 32 4 23 2 -10 2 -28 0 -40z m-2160 36 c-3 -3 -12 -4 -19 -1 -8 3 -5 6 6
6 11 1 17 -2 13 -5z m646 -1 c-13 -2 -33 -2 -45 0 -13 2 -3 4 22 4 25 0 35 -2
23 -4z m392 -32 c-3 -12 -11 -21 -16 -21 -6 0 -8 3 -6 8 2 4 7 16 11 26 9 25
20 13 11 -13z m-967 -9 c30 -38 -4 -103 -62 -118 -30 -7 -76 18 -76 41 0 9 8
6 25 -10 13 -14 30 -25 37 -24 10 0 10 2 0 6 -24 10 -43 60 -32 88 17 44 78
54 108 17z m1401 9 c0 -3 -7 -22 -14 -41 l-13 -35 -1 47 c-1 38 2 46 14 42 8
-4 15 -9 14 -13z m728 -13 c-3 -7 -5 -2 -5 12 0 14 2 19 5 13 2 -7 2 -19 0
-25z m-2760 16 c-3 -3 -12 -4 -19 -1 -8 3 -5 6 6 6 11 1 17 -2 13 -5z m1180
-1 c-20 -2 -52 -2 -70 0 -17 2 0 4 38 4 39 0 53 -2 32 -4z m978 -3 c3 -5 1
-10 -4 -10 -6 0 -11 5 -11 10 0 6 2 10 4 10 3 0 8 -4 11 -10z m-405 -21 c0 -4
-7 -6 -15 -3 -11 5 -14 2 -9 -12 5 -14 4 -16 -5 -8 -15 14 -3 44 15 37 8 -3
14 -9 14 -14z m-2430 -24 c-7 -8 -20 -15 -29 -15 -12 1 -11 5 8 21 26 22 41
18 21 -6z m1847 18 c-20 -2 -52 -2 -70 0 -17 2 0 4 38 4 39 0 53 -2 32 -4z
m417 -41 c-18 -28 0 -62 34 -62 15 0 32 -4 37 -9 6 -5 19 -12 30 -15 11 -3 -2
-4 -28 -2 -33 3 -56 11 -73 27 -23 22 -33 59 -15 59 5 0 7 10 4 23 -5 18 -3
20 8 9 10 -9 11 -17 3 -30z m-2374 -28 c22 -61 16 -84 -22 -84 -24 0 -88 61
-88 84 0 13 60 54 82 56 4 0 16 -25 28 -56z m1180 15 c0 -20 -24 -26 -35 -9
-4 6 -4 17 -1 25 7 20 36 7 36 -16z m767 24 c-20 -2 -52 -2 -70 0 -17 2 0 4
38 4 39 0 53 -2 32 -4z m587 -10 c-7 -2 -10 -13 -7 -23 6 -21 -11 -28 -22 -9
-8 12 25 53 34 43 3 -4 1 -9 -5 -11z m1023 -116 c-2 -23 -3 -1 -3 48 0 50 1
68 3 42 2 -26 2 -67 0 -90z m-3687 38 c26 -31 -7 -14 -41 22 l-34 36 31 -21
c17 -12 37 -28 44 -37z m215 46 c3 -5 1 -12 -5 -16 -5 -3 -10 1 -10 9 0 18 6
21 15 7z m1355 -10 c-5 -11 -15 -23 -21 -27 -6 -3 -3 5 6 20 20 30 30 35 15 7z
m493 12 c-18 -2 -48 -2 -65 0 -18 2 -4 4 32 4 36 0 50 -2 33 -4z m803 -48 c8
-33 -1 -55 -23 -55 -17 1 -17 1 0 11 23 13 22 30 -5 64 l-21 28 21 -12 c12 -6
25 -23 28 -36z m-1603 0 c172 -29 198 -30 237 -10 17 9 30 13 30 11 0 -3 -13
-12 -30 -21 -40 -21 -133 -19 -270 5 -154 27 -160 29 -160 40 0 6 10 8 23 5
12 -2 89 -16 170 -30z m1359 13 c-7 -7 -12 -8 -12 -2 0 14 12 26 19 19 2 -3
-1 -11 -7 -17z m211 -18 c5 -20 -9 -37 -21 -26 -3 4 -7 20 -8 37 -2 23 1 28
11 19 7 -6 15 -20 18 -30z m-840 23 c-7 -2 -19 -2 -25 0 -7 3 -2 5 12 5 14 0
19 -2 13 -5z m962 -22 c3 -5 1 -12 -5 -16 -5 -3 -10 1 -10 9 0 18 6 21 15 7z
m-917 -8 c-15 -2 -42 -2 -60 0 -18 2 -6 4 27 4 33 0 48 -2 33 -4z m482 -38 c0
-62 69 -244 108 -289 14 -15 14 -18 2 -14 -22 7 -75 100 -100 176 -24 74 -39
187 -21 162 6 -8 11 -24 11 -35z m-487 8 c-18 -2 -48 -2 -65 0 -18 2 -4 4 32
4 36 0 50 -2 33 -4z m1292 -23 c10 -11 16 -20 13 -20 -3 0 -13 9 -23 20 -10
11 -16 20 -13 20 3 0 13 -9 23 -20z m-1435 -36 c44 -35 47 -36 111 -31 62 5
67 4 79 -17 20 -38 10 -61 -30 -64 -38 -3 -54 6 -146 80 -33 27 -66 48 -75 48
-8 0 -33 -15 -55 -33 -85 -73 -117 -70 -46 4 61 63 96 65 162 13z m118 -11
c-16 -2 -40 -2 -55 0 -16 2 -3 4 27 4 30 0 43 -2 28 -4z m1603 -74 l-11 -34 5
34 c3 18 6 45 6 60 l2 26 4 -26 c2 -15 -1 -42 -6 -60z m66 49 c-3 -7 -5 -2 -5
12 0 14 2 19 5 13 2 -7 2 -19 0 -25z m-321 -25 c-4 -16 -18 -51 -32 -80 -24
-51 -25 -51 -55 -41 -16 6 -29 13 -27 17 2 3 11 24 21 46 17 36 67 83 91 84 4
1 5 -11 2 -26z m-610 -18 c4 -8 3 -23 -1 -32 -7 -17 -8 -16 -15 2 -5 11 -9 26
-9 33 -1 17 18 15 25 -3z m141 9 c13 -4 20 -10 17 -15 -8 -13 -28 -11 -50 6
-21 16 -8 20 33 9z m780 -16 c-3 -8 -6 -5 -6 6 -1 11 2 17 5 13 3 -3 4 -12 1
-19z m-70 -60 c-3 -8 -6 -5 -6 6 -1 11 2 17 5 13 3 -3 4 -12 1 -19z m-746 -64
c14 -17 3 -18 -39 -3 -18 6 -30 14 -27 19 7 11 53 0 66 -16z m29 16 c0 -5 -2
-10 -4 -10 -3 0 -8 5 -11 10 -3 6 -1 10 4 10 6 0 11 -4 11 -10z m38 -28 c2 -7
-3 -12 -12 -12 -9 0 -16 7 -16 16 0 17 22 14 28 -4z m295 -23 c32 -8 36 -13
26 -25 -12 -15 -47 -18 -97 -8 l-31 6 22 19 c26 22 30 22 80 8z m-537 -71 l29
-33 -32 29 c-31 28 -38 36 -30 36 2 0 16 -15 33 -32z m520 10 c7 -8 -73 -55
-110 -64 -48 -12 -66 45 -20 69 24 13 115 9 130 -5z m-436 -75 c0 -7 -39 17
-46 28 -3 6 5 3 20 -6 14 -10 26 -19 26 -22z m107 -39 c-3 -3 -12 -4 -19 -1
-8 3 -5 6 6 6 11 1 17 -2 13 -5z"/>
<path d="M3505 3760 c-3 -5 1 -10 9 -10 8 0 18 5 21 10 3 6 -1 10 -9 10 -8 0
-18 -4 -21 -10z"/>
<path d="M3394 3529 c27 -24 56 -48 65 -52 22 -11 -69 72 -94 85 -11 6 2 -9
29 -33z"/>
<path d="M3419 3052 c24 -22 62 -50 85 -62 60 -33 37 -14 -89 74 l-40 28 44
-40z"/>
<path d="M2700 3279 c-36 -4 -92 -17 -125 -29 -33 -11 -49 -17 -35 -15 131 28
183 35 253 35 100 0 148 -20 201 -81 35 -40 37 -41 20 -10 -21 36 -65 74 -104
89 -41 15 -140 21 -210 11z"/>
<path d="M2649 3166 c41 -50 115 -64 249 -48 l53 7 -21 23 c-14 15 -32 22 -58
22 -20 0 -82 3 -137 7 -94 6 -99 5 -86 -11z m138 -13 c40 -3 70 -10 67 -14 -8
-14 -112 -10 -149 5 -39 17 -48 32 -12 21 12 -3 55 -9 94 -12z m118 -13 c3 -5
-1 -10 -9 -10 -9 0 -16 5 -16 10 0 6 4 10 9 10 6 0 13 -4 16 -10z"/>
<path d="M3270 3085 c0 -5 5 -17 10 -25 5 -8 10 -10 10 -5 0 6 -5 17 -10 25
-5 8 -10 11 -10 5z"/>
<path d="M3310 2995 c0 -5 5 -17 10 -25 5 -8 10 -10 10 -5 0 6 -5 17 -10 25
-5 8 -10 11 -10 5z"/>
<path d="M3340 2925 c0 -5 5 -17 10 -25 5 -8 10 -10 10 -5 0 6 -5 17 -10 25
-5 8 -10 11 -10 5z"/>
<path d="M3366 2861 c10 -37 33 -88 33 -71 0 8 -9 33 -20 55 -10 22 -16 29
-13 16z"/>
<path d="M3667 3239 c-43 -25 -61 -136 -33 -202 17 -42 80 -97 110 -97 13 0
34 8 46 18 32 26 33 128 3 194 -38 83 -81 113 -126 87z m62 -26 c11 -10 24
-33 27 -50 7 -35 4 -37 -46 -34 -22 1 -23 0 -7 -9 9 -6 17 -18 17 -28 0 -11
-12 -4 -40 23 -46 45 -48 53 -19 89 24 31 39 32 68 9z m51 -133 c0 -25 -4 -30
-25 -30 -20 0 -25 5 -25 24 0 13 6 27 13 29 28 12 37 6 37 -23z m-58 -52 c17
17 23 15 36 -13 9 -20 9 -25 -3 -25 -7 0 -16 4 -20 10 -3 5 -12 6 -21 3 -16
-6 -43 18 -63 54 -20 39 -11 38 24 -2 27 -32 37 -37 47 -27z"/>
<path d="M930 3177 c3 -3 52 -17 110 -32 58 -14 124 -35 146 -45 38 -16 44
-23 59 -76 23 -81 37 -105 103 -178 31 -34 93 -114 136 -177 111 -159 182
-246 215 -264 16 -8 48 -17 72 -20 42 -5 42 -4 -11 11 -73 20 -114 62 -245
246 -58 81 -129 176 -159 210 -63 75 -71 89 -97 174 -19 61 -23 67 -64 85 -60
26 -281 82 -265 66z"/>
<path d="M2098 2719 c-22 -12 -23 -42 -4 -58 11 -9 20 -7 41 11 43 38 13 76
-37 47z"/>
<path d="M2040 2645 c19 -19 36 -35 39 -35 3 0 -10 16 -29 35 -19 19 -36 35
-39 35 -3 0 10 -16 29 -35z"/>
<path d="M3000 2929 c0 -5 13 -9 29 -9 36 0 76 -31 112 -89 16 -25 29 -40 29
-35 0 19 -62 104 -83 116 -31 16 -87 27 -87 17z"/>
<path d="M2841 2900 c-113 -39 -213 -87 -300 -145 -72 -48 -98 -76 -85 -97 10
-16 309 -4 407 17 90 18 171 51 163 64 -7 11 -195 75 -202 69 -2 -3 24 -16 58
-29 34 -13 63 -30 66 -37 9 -29 -175 -68 -375 -79 -91 -5 -103 -4 -103 10 0
48 304 206 465 242 48 11 53 13 25 14 -19 0 -73 -13 -119 -29z"/>
<path d="M3164 2756 c-14 -57 -111 -106 -229 -116 l-80 -7 67 -1 c76 -2 148
20 204 63 33 25 61 72 50 83 -3 2 -8 -8 -12 -22z"/>
<path d="M3903 2543 c9 -2 25 -2 35 0 9 3 1 5 -18 5 -19 0 -27 -2 -17 -5z"/>
<path d="M3788 2522 c-68 -25 -69 -33 -1 -12 32 10 67 20 78 23 16 4 15 5 -5
5 -14 0 -46 -7 -72 -16z"/>
<path d="M2780 2499 c0 -5 5 -7 10 -4 6 3 10 8 10 11 0 2 -4 4 -10 4 -5 0 -10
-5 -10 -11z"/>
<path d="M3030 2463 c0 -5 5 -15 10 -23 7 -11 12 -12 21 -3 6 6 8 16 5 22 -8
12 -36 15 -36 4z"/>
<path d="M3690 2205 c0 -5 5 -17 10 -25 5 -8 10 -10 10 -5 0 6 -5 17 -10 25
-5 8 -10 11 -10 5z"/>
<path d="M4465 2380 c10 -11 20 -20 23 -20 3 0 -3 9 -13 20 -10 11 -20 20 -23
20 -3 0 3 -9 13 -20z"/>
<path d="M865 2040 c-4 -6 -3 -10 2 -9 21 4 24 -2 12 -18 -12 -16 -12 -17 2
-6 9 7 20 9 25 5 5 -4 0 3 -10 16 -22 25 -23 26 -31 12z"/>
<path d="M902 1988 c-6 -8 -7 -19 -3 -26 6 -10 11 -9 21 3 9 11 10 19 3 26 -7
7 -14 5 -21 -3z"/>
<path d="M950 1945 c0 -8 -6 -15 -12 -15 -8 0 -5 -7 6 -15 11 -8 38 -15 60
-14 23 0 35 3 28 6 -6 2 -10 8 -8 12 3 4 1 13 -4 20 -10 18 -33 3 -26 -16 4
-9 1 -13 -6 -11 -7 3 -14 14 -16 26 -4 25 -22 30 -22 7z"/>
<path d="M1640 2270 c0 -13 28 -25 38 -16 3 4 0 11 -8 16 -20 13 -30 12 -30 0z"/>
<path d="M1807 2163 c-12 -12 -7 -40 9 -54 14 -11 18 -10 30 5 22 30 -14 75
-39 49z"/>
<path d="M2810 2189 c0 -5 -4 -7 -10 -4 -5 3 -10 -1 -10 -10 0 -22 34 -15 38
8 2 9 -1 17 -7 17 -6 0 -11 -5 -11 -11z"/>
<path d="M4020 2130 c0 -5 5 -10 11 -10 5 0 7 5 4 10 -3 6 -8 10 -11 10 -2 0
-4 -4 -4 -10z"/>
<path d="M4090 2110 c0 -5 5 -10 11 -10 5 0 7 5 4 10 -3 6 -8 10 -11 10 -2 0
-4 -4 -4 -10z"/>
<path d="M4130 2045 c7 -9 15 -13 17 -11 7 7 -7 26 -19 26 -6 0 -6 -6 2 -15z"/>
<path d="M4206 1971 c-3 -5 1 -11 9 -15 9 -3 15 0 15 9 0 16 -16 20 -24 6z"/>
<path d="M4177 1873 c-16 -4 -18 -11 -13 -41 6 -35 5 -36 -9 -18 -8 11 -15 26
-15 34 0 10 -7 12 -22 8 -13 -4 -35 -9 -50 -12 -23 -6 -26 -10 -21 -34 3 -16
0 -44 -7 -64 -13 -39 -5 -65 14 -46 8 8 7 13 -4 21 -12 8 -12 10 5 7 10 -2 28
-20 39 -41 20 -38 20 -38 36 -17 16 21 16 21 34 1 10 -11 16 -26 13 -33 -4 -8
-6 -7 -6 5 -1 10 -9 17 -21 17 -23 0 -26 -10 -8 -28 41 -41 81 28 80 137 0 70
-8 112 -20 110 -4 -1 -15 -3 -25 -6z m18 -133 c3 -5 -1 -10 -9 -10 -9 0 -16 5
-16 10 0 6 4 10 9 10 6 0 13 -4 16 -10z"/>
<path d="M4230 1741 c0 -5 5 -13 10 -16 6 -3 10 -2 10 4 0 5 -4 13 -10 16 -5
3 -10 2 -10 -4z"/>
<path d="M3631 1704 c0 -11 3 -14 6 -6 3 7 2 16 -1 19 -3 4 -6 -2 -5 -13z"/>
<path d="M4240 1680 c0 -5 5 -10 10 -10 6 0 10 5 10 10 0 6 -4 10 -10 10 -5 0
-10 -4 -10 -10z"/>
<path d="M3650 1654 c0 -6 7 -19 16 -30 14 -18 14 -18 3 6 -14 31 -19 36 -19
24z"/>
<path d="M4200 1576 c0 -9 5 -16 10 -16 6 0 10 4 10 9 0 6 -4 13 -10 16 -5 3
-10 -1 -10 -9z"/>
<path d="M3755 1460 c3 -5 8 -10 11 -10 2 0 4 5 4 10 0 6 -5 10 -11 10 -5 0
-7 -4 -4 -10z"/>
<path d="M3917 1423 c-18 -17 -5 -33 28 -33 28 0 35 4 35 20 0 15 -7 20 -28
20 -16 0 -32 -3 -35 -7z"/>
<path d="M3865 1410 c-3 -5 -1 -10 4 -10 6 0 11 5 11 10 0 6 -2 10 -4 10 -3 0
-8 -4 -11 -10z"/>
<path d="M4336 1873 c-6 -14 -5 -15 5 -6 7 7 10 15 7 18 -3 3 -9 -2 -12 -12z"/>
<path d="M2512 1873 c4 -22 43 -25 43 -3 0 8 -11 16 -23 18 -19 3 -23 0 -20
-15z"/>
<path d="M2325 1860 c3 -5 8 -10 11 -10 2 0 4 5 4 10 0 6 -5 10 -11 10 -5 0
-7 -4 -4 -10z"/>
<path d="M1463 1423 c9 -2 23 -2 30 0 6 3 -1 5 -18 5 -16 0 -22 -2 -12 -5z"/>
<path d="M3633 1043 c9 -2 23 -2 30 0 6 3 -1 5 -18 5 -16 0 -22 -2 -12 -5z"/>
<path d="M4303 973 c9 -2 25 -2 35 0 9 3 1 5 -18 5 -19 0 -27 -2 -17 -5z"/>
</g>
</svg>